<svg width="24.000000" height="24.000000" viewBox="0 0 24 24" fill="none" xmlns="http://www.w3.org/2000/svg" xmlns:xlink="http://www.w3.org/1999/xlink">
	<desc>
			Created with Pixso.
	</desc>
	<defs/>
	<path d="M12 15.58C10.02 15.58 8.41 13.98 8.41 12C8.41 10.02 10.02 8.41 12 8.41C13.98 8.41 15.58 10.02 15.58 12C15.58 13.98 13.98 15.58 12 15.58Z" stroke="#7F879E" stroke-opacity="1.000000" stroke-width="1.500000" stroke-linejoin="round"/>
	<path d="M21.1 14.59C22 13.18 22 10.81 21.1 9.4C18.81 5.8 15.52 3.72 12 3.72C8.46 3.72 5.17 5.8 2.88 9.4C1.98 10.81 1.98 13.18 2.88 14.59C5.17 18.19 8.46 20.27 12 20.27C15.52 20.27 18.81 18.19 21.1 14.59Z" stroke="#7F879E" stroke-opacity="1.000000" stroke-width="1.500000" stroke-linejoin="round"/>
	<g opacity="0.000000"/>
</svg>
